<?xml version="1.0" encoding="utf-8"?>
<!-- Generator: Adobe Illustrator 26.0.0, SVG Export Plug-In . SVG Version: 6.00 Build 0)  -->
<svg version="1.1" id="Layer_1" xmlns="http://www.w3.org/2000/svg" xmlns:xlink="http://www.w3.org/1999/xlink" x="0px" y="0px"
	 viewBox="0 0 512 512" style="enable-background:new 0 0 512 512;" xml:space="preserve">
<style type="text/css">
	.st0{fill:url(#SVGID_1_);}
	.st1{fill:#FFFFFF;}
	.st2{fill:url(#SVGID_00000165933083388953337790000013906848057457769396_);}
</style>
<g id="Layer_5">
	
		<linearGradient id="SVGID_1_" gradientUnits="userSpaceOnUse" x1="-862.8859" y1="3771.1487" x2="-504.2379" y2="3771.1487" gradientTransform="matrix(0.7071 -0.7071 0.7071 0.7071 -1855.7799 -2823.1731)">
		<stop  offset="0" style="stop-color:#FFFFFF;stop-opacity:0.9"/>
		<stop  offset="0.6336" style="stop-color:#FFFFFF;stop-opacity:0.7"/>
		<stop  offset="1" style="stop-color:#FFFFFF;stop-opacity:0.6"/>
	</linearGradient>
	<path class="st0" d="M410.6,412.5c-70.5,69.1-184.1,66.9-253.9-2.9l-40.5-40.5l32.3-32.3l40.7,40.7c51.9,51.9,136.3,54,189,2.9
		c53.6-52,54.1-137.9,1.5-190.5l-42.1-42.1l12.1-12.1c11.1-11.1,29.2-11.1,40.3,0l22,22C482.1,228,481.7,342.7,410.6,412.5z"/>
</g>
<g id="Layer_4">
</g>
<g id="Layer_3">
	<path class="st1" d="M123.6,227c-12.4,0-22.5-10.1-22.5-22.5c0-57.3,46.7-104,104-104c12.4,0,22.5,10.1,22.5,22.5
		s-10.1,22.5-22.5,22.5c-32.5,0-59,26.5-59,59C146.1,216.9,136,227,123.6,227z M49.4,225.4c-12.4,0-22.5-10.1-22.5-22.5
		c0-97.4,79.2-176.6,176.6-176.6c12.4,0,22.5,10.1,22.5,22.5s-10.1,22.5-22.5,22.5c-72.6,0-131.6,59-131.6,131.6
		C71.9,215.3,61.8,225.4,49.4,225.4z"/>
</g>
<g id="Layer_2_1_">
	
		<linearGradient id="SVGID_00000168823408071995316830000002537713153357205932_" gradientUnits="userSpaceOnUse" x1="257.745" y1="3685.6431" x2="442.3697" y2="4022.4922" gradientTransform="matrix(1 0 0 1 0 -3432)">
		<stop  offset="0" style="stop-color:#FFFFFF"/>
		<stop  offset="1" style="stop-color:#FFFFFF;stop-opacity:0.7"/>
	</linearGradient>
	<path style="fill:url(#SVGID_00000168823408071995316830000002537713153357205932_);" d="M190,378.3
		c52.1,52.1,169.7,85.1,221.9,32.9c-69.9,69.9-183.7,69.9-253.6,0l-31.5-31.5L115,367.9c-11.3-11.3-11.3-29.7,0-41l11.7-11.7
		l72.1-72.1c-6.1-6.2-9.7-15-9.1-24.5c1.1-15.7,13.8-28.5,29.5-29.5c9.6-0.7,18.3,2.9,24.5,9.1l72.4-72.4
		c17.7-17.6,46.3-17.6,63.9,0l0.3,0.3l31.5,31.5c-17.4-17.4-45.6-17.4-63,0L160.5,348.8L190,378.3z"/>
</g>
</svg>
