<svg width="352" height="88" viewBox="0 0 352 88" fill="none" xmlns="http://www.w3.org/2000/svg">
<path fill-rule="evenodd" clip-rule="evenodd" d="M42.24 88C22.3279 88 12.3718 88 6.18591 81.8141C-5.45447e-07 75.6282 -9.84393e-07 65.672 -1.86228e-06 45.7598L-2.01747e-06 42.2398C-2.89536e-06 22.3276 -3.3343e-06 12.3715 6.1859 6.18556C12.3718 7.53081e-06 22.3279 7.09933e-06 42.2399 6.23638e-06L42.24 6.23638e-06L45.76 6.08383e-06L45.76 6.08383e-06C65.6721 5.22087e-06 75.6282 4.7894e-06 81.8141 6.18555C88 12.3714 88 22.3276 88 42.2398L88 45.7598C88 65.672 88 75.6282 81.8141 81.8141C75.6282 88 65.6721 88 45.76 88L42.24 88Z" fill="#2B71F6"/>
<path d="M50.8869 54.2316C48.516 53.6393 46.8535 51.5184 46.8535 49.0859L46.8535 20.428C46.8535 17.6651 49.4643 15.6387 52.1573 16.3115L69.2113 20.5717C71.5823 21.1639 73.2448 23.2848 73.2448 25.7173L73.2448 54.3752C73.2448 57.1381 70.634 59.1645 67.941 58.4917L50.8869 54.2316Z" fill="white"/>
<path d="M18.7883 67.4283C16.4173 66.836 14.7549 64.7152 14.7549 62.2827L14.7549 33.6248C14.7549 30.8619 17.3656 28.8355 20.0587 29.5083L37.1127 33.7684C39.4837 34.3607 41.1461 36.4816 41.1461 38.9141L41.1461 67.572C41.1461 70.3349 38.5353 72.3612 35.8423 71.6885L18.7883 67.4283Z" fill="white"/>
<path d="M34.8381 60.8302C32.4671 60.2379 30.8047 58.117 30.8047 55.6845L30.8047 27.0267C30.8047 24.2637 33.4155 22.2374 36.1085 22.9101L53.1625 27.1703C55.5335 27.7626 57.1959 29.8834 57.1959 32.316L57.1959 60.9738C57.1959 63.7367 54.5852 65.7631 51.8921 65.0904L34.8381 60.8302Z" fill="white"/>
<path d="M45.9999 63.6259V63.6259C45.2531 63.4358 44.7216 62.7753 44.6955 62.0052L43.9536 40.1193C43.739 37.2227 41.5888 34.919 39.3419 34.2405C39.2157 34.2025 39.081 34.2538 39.0063 34.3623V34.3623C38.9304 34.4726 38.9597 34.6253 39.0656 34.7073C39.6205 35.1367 41.1476 36.5384 41.1476 38.9561L41.1431 62.3952L45.9999 63.6259Z" fill="#2B71F6"/>
<path d="M62.0528 57.0218V57.0218C61.3066 56.8351 60.7744 56.1766 60.7484 55.4079L60.0063 33.5236C59.7917 30.627 57.6416 28.3233 55.3946 27.6448C55.2685 27.6068 55.1338 27.6581 55.0591 27.7666V27.7666C54.9831 27.8769 55.0125 28.0296 55.1184 28.1115C55.6732 28.541 57.2004 29.9427 57.2004 32.3604L57.1959 55.8075L62.0528 57.0218Z" fill="#2B71F6"/>
<path d="M138.658 50.5556C145.322 48.8566 149.701 43.7597 149.701 37.0897C149.701 28.8465 143.101 23.0575 133.834 23.0575H117.333V67.4194H124.949V51.1219H130.344L142.149 67.4194H151.097L138.658 50.5556ZM133.834 29.9792C138.594 29.9792 141.895 32.8737 141.895 37.0897C141.895 41.3056 138.594 44.2002 133.834 44.2002H124.949V29.9792H133.834Z" fill="black"/>
<path d="M168.238 68.0486C172.236 68.0486 175.917 65.9721 178.012 62.5113L179.471 67.4194H184.93V34.6985H177.631V53.6389C177.631 58.2953 174.521 61.5674 170.269 61.5674C166.08 61.5674 163.16 58.2953 163.16 53.6389V34.6985H155.862V54.4569C155.862 62.3225 161.193 68.0486 168.238 68.0486Z" fill="black"/>
<path d="M208.222 68.0486C216.663 68.0486 223.645 63.2664 223.645 55.3378C223.645 46.4655 216.346 43.8855 210.063 41.7461C205.176 40.1101 200.924 38.5999 200.924 34.6356C200.924 31.1748 204.16 29.3499 207.968 29.3499C211.967 29.3499 214.823 31.4265 216.41 34.9502L223.645 33.7547C221.36 26.833 215.584 22.4282 207.715 22.4282C199.591 22.4282 193.117 27.0847 193.117 35.0132C193.117 43.9485 200.416 46.4025 206.699 48.479C211.523 50.0522 215.838 51.5624 215.838 55.5895C215.838 59.1133 212.602 61.1269 208.286 61.1269C203.335 61.1269 200.67 58.7987 198.322 54.5827L190.959 55.8412C193.117 63.3293 199.972 68.0486 208.222 68.0486Z" fill="black"/>
<path d="M243.5 61.1269C241.025 61.1269 239.819 59.9313 239.819 57.4773V40.991H249.656V34.6985H239.819V25.2598H234.361L232.52 34.6985H227.126V40.991H232.52V57.4773C232.52 63.8956 236.265 67.4194 243.5 67.4194H249.656L250.291 61.1269H243.5Z" fill="black"/>
<path d="M271.148 68.0486C281.493 68.0486 288.791 61.0011 288.791 51.059C288.791 41.1169 281.493 34.0693 271.148 34.0693C260.803 34.0693 253.504 41.1169 253.504 51.059C253.504 61.0011 260.803 68.0486 271.148 68.0486ZM271.148 61.4415C265.182 61.4415 261.12 57.2256 261.12 51.059C261.12 44.8923 265.182 40.6764 271.148 40.6764C277.114 40.6764 281.175 44.8923 281.175 51.059C281.175 57.2256 277.114 61.4415 271.148 61.4415Z" fill="black"/>
<path d="M302.435 67.4194V48.1015C302.435 43.9485 304.466 41.6203 308.909 41.6203H313.098L312.463 34.6985H311.067C307.195 34.6985 304.212 35.7683 301.991 39.4179L300.595 34.6985H295.137V67.4194H302.435Z" fill="black"/>
<path d="M349.011 50.6814C349.011 41.2427 341.903 34.0693 331.875 34.0693C321.848 34.0693 314.739 41.1798 314.739 51.059C314.739 60.9381 321.848 68.0486 331.875 68.0486C338.73 68.0486 345.203 64.8395 347.679 58.6099L340.824 57.4773C339.238 59.8055 336.191 61.4415 332.32 61.4415C326.735 61.4415 323.054 58.0436 322.355 53.0096H348.885C348.948 52.3175 349.011 51.5624 349.011 50.6814ZM331.875 40.3618C336.445 40.3618 339.872 43.2563 341.078 47.3464H322.8C324.006 43.1304 327.433 40.3618 331.875 40.3618Z" fill="black"/>
</svg>
