<?xml version="1.0" encoding="utf-8"?>
<!-- Generator: Adobe Illustrator 24.1.2, SVG Export Plug-In . SVG Version: 6.00 Build 0)  -->
<svg version="1.1" xmlns="http://www.w3.org/2000/svg" xmlns:xlink="http://www.w3.org/1999/xlink" x="0px" y="0px"
	 viewBox="0 0 24 24" style="enable-background:new 0 0 24 24;" xml:space="preserve">
<style type="text/css">
	.st0{opacity:0.2;}
	.st1{opacity:0.2;fill:none;stroke:#1D1D1B;stroke-width:0.1;stroke-miterlimit:10;}
	.st2{opacity:0.05;fill:none;stroke:#1D1D1B;stroke-width:0.1;stroke-miterlimit:10;}
</style>
<g id="Grid">
	<g id="Guides" class="st0">
	</g>
	<circle class="st1" cx="12" cy="12" r="10"/>
	<rect x="0" y="0" class="st1" width="24" height="24"/>
	<line class="st1" x1="0" y1="12" x2="24" y2="12"/>
	<line class="st1" x1="12" y1="0" x2="12" y2="24"/>
	<line class="st1" x1="18" y1="0" x2="18" y2="24"/>
	<line class="st1" x1="6" y1="0" x2="6" y2="24"/>
	<line class="st1" x1="0" y1="0" x2="24" y2="24"/>
	<line class="st1" x1="24" y1="0" x2="0" y2="24"/>
	<line class="st1" x1="24" y1="18" x2="0" y2="18"/>
	<line class="st1" x1="24" y1="6" x2="0" y2="6"/>
	<circle class="st1" cx="11.99" cy="12" r="6"/>
	<circle class="st1" cx="11.99" cy="12" r="3"/>
	<g id="Guides_1_" class="st0">
	</g>
	<g id="Guides_2_" class="st0">
	</g>
	<g id="Guides_3_" class="st0">
	</g>
	<rect x="1.99" y="2" class="st1" width="20" height="20"/>
	<g id="Guides_4_">
		<rect class="st2" width="1" height="1"/>
		<rect x="1" class="st2" width="1" height="1"/>
		<rect x="2" class="st2" width="1" height="1"/>
		<rect x="3" class="st2" width="1" height="1"/>
		<rect x="4" class="st2" width="1" height="1"/>
		<rect x="5" class="st2" width="1" height="1"/>
		<rect x="6" class="st2" width="1" height="1"/>
		<rect x="7" class="st2" width="1" height="1"/>
		<rect x="8" class="st2" width="1" height="1"/>
		<rect x="9" class="st2" width="1" height="1"/>
		<rect x="10" class="st2" width="1" height="1"/>
		<rect x="11" class="st2" width="1" height="1"/>
		<rect x="12" class="st2" width="1" height="1"/>
		<rect x="13" class="st2" width="1" height="1"/>
		<rect x="14" class="st2" width="1" height="1"/>
		<rect x="15" class="st2" width="1" height="1"/>
		<rect x="16" class="st2" width="1" height="1"/>
		<rect x="17" class="st2" width="1" height="1"/>
		<rect x="18" class="st2" width="1" height="1"/>
		<rect x="19" class="st2" width="1" height="1"/>
		<rect x="20" class="st2" width="1" height="1"/>
		<rect x="21" class="st2" width="1" height="1"/>
		<rect x="22" class="st2" width="1" height="1"/>
		<rect x="23" class="st2" width="1" height="1"/>
		<rect y="1" class="st2" width="1" height="1"/>
		<rect x="1" y="1" class="st2" width="1" height="1"/>
		<rect x="2" y="1" class="st2" width="1" height="1"/>
		<rect x="3" y="1" class="st2" width="1" height="1"/>
		<rect x="4" y="1" class="st2" width="1" height="1"/>
		<rect x="5" y="1" class="st2" width="1" height="1"/>
		<rect x="6" y="1" class="st2" width="1" height="1"/>
		<rect x="7" y="1" class="st2" width="1" height="1"/>
		<rect x="8" y="1" class="st2" width="1" height="1"/>
		<rect x="9" y="1" class="st2" width="1" height="1"/>
		<rect x="10" y="1" class="st2" width="1" height="1"/>
		<rect x="11" y="1" class="st2" width="1" height="1"/>
		<rect x="12" y="1" class="st2" width="1" height="1"/>
		<rect x="13" y="1" class="st2" width="1" height="1"/>
		<rect x="14" y="1" class="st2" width="1" height="1"/>
		<rect x="15" y="1" class="st2" width="1" height="1"/>
		<rect x="16" y="1" class="st2" width="1" height="1"/>
		<rect x="17" y="1" class="st2" width="1" height="1"/>
		<rect x="18" y="1" class="st2" width="1" height="1"/>
		<rect x="19" y="1" class="st2" width="1" height="1"/>
		<rect x="20" y="1" class="st2" width="1" height="1"/>
		<rect x="21" y="1" class="st2" width="1" height="1"/>
		<rect x="22" y="1" class="st2" width="1" height="1"/>
		<rect x="23" y="1" class="st2" width="1" height="1"/>
		<rect y="2" class="st2" width="1" height="1"/>
		<rect x="1" y="2" class="st2" width="1" height="1"/>
		<rect x="2" y="2" class="st2" width="1" height="1"/>
		<rect x="3" y="2" class="st2" width="1" height="1"/>
		<rect x="4" y="2" class="st2" width="1" height="1"/>
		<rect x="5" y="2" class="st2" width="1" height="1"/>
		<rect x="6" y="2" class="st2" width="1" height="1"/>
		<rect x="7" y="2" class="st2" width="1" height="1"/>
		<rect x="8" y="2" class="st2" width="1" height="1"/>
		<rect x="9" y="2" class="st2" width="1" height="1"/>
		<rect x="10" y="2" class="st2" width="1" height="1"/>
		<rect x="11" y="2" class="st2" width="1" height="1"/>
		<rect x="12" y="2" class="st2" width="1" height="1"/>
		<rect x="13" y="2" class="st2" width="1" height="1"/>
		<rect x="14" y="2" class="st2" width="1" height="1"/>
		<rect x="15" y="2" class="st2" width="1" height="1"/>
		<rect x="16" y="2" class="st2" width="1" height="1"/>
		<rect x="17" y="2" class="st2" width="1" height="1"/>
		<rect x="18" y="2" class="st2" width="1" height="1"/>
		<rect x="19" y="2" class="st2" width="1" height="1"/>
		<rect x="20" y="2" class="st2" width="1" height="1"/>
		<rect x="21" y="2" class="st2" width="1" height="1"/>
		<rect x="22" y="2" class="st2" width="1" height="1"/>
		<rect x="23" y="2" class="st2" width="1" height="1"/>
		<rect y="3" class="st2" width="1" height="1"/>
		<rect x="1" y="3" class="st2" width="1" height="1"/>
		<rect x="2" y="3" class="st2" width="1" height="1"/>
		<rect x="3" y="3" class="st2" width="1" height="1"/>
		<rect x="4" y="3" class="st2" width="1" height="1"/>
		<rect x="5" y="3" class="st2" width="1" height="1"/>
		<rect x="6" y="3" class="st2" width="1" height="1"/>
		<rect x="7" y="3" class="st2" width="1" height="1"/>
		<rect x="8" y="3" class="st2" width="1" height="1"/>
		<rect x="9" y="3" class="st2" width="1" height="1"/>
		<rect x="10" y="3" class="st2" width="1" height="1"/>
		<rect x="11" y="3" class="st2" width="1" height="1"/>
		<rect x="12" y="3" class="st2" width="1" height="1"/>
		<rect x="13" y="3" class="st2" width="1" height="1"/>
		<rect x="14" y="3" class="st2" width="1" height="1"/>
		<rect x="15" y="3" class="st2" width="1" height="1"/>
		<rect x="16" y="3" class="st2" width="1" height="1"/>
		<rect x="17" y="3" class="st2" width="1" height="1"/>
		<rect x="18" y="3" class="st2" width="1" height="1"/>
		<rect x="19" y="3" class="st2" width="1" height="1"/>
		<rect x="20" y="3" class="st2" width="1" height="1"/>
		<rect x="21" y="3" class="st2" width="1" height="1"/>
		<rect x="22" y="3" class="st2" width="1" height="1"/>
		<rect x="23" y="3" class="st2" width="1" height="1"/>
		<rect y="4" class="st2" width="1" height="1"/>
		<rect x="1" y="4" class="st2" width="1" height="1"/>
		<rect x="2" y="4" class="st2" width="1" height="1"/>
		<rect x="3" y="4" class="st2" width="1" height="1"/>
		<rect x="4" y="4" class="st2" width="1" height="1"/>
		<rect x="5" y="4" class="st2" width="1" height="1"/>
		<rect x="6" y="4" class="st2" width="1" height="1"/>
		<rect x="7" y="4" class="st2" width="1" height="1"/>
		<rect x="8" y="4" class="st2" width="1" height="1"/>
		<rect x="9" y="4" class="st2" width="1" height="1"/>
		<rect x="10" y="4" class="st2" width="1" height="1"/>
		<rect x="11" y="4" class="st2" width="1" height="1"/>
		<rect x="12" y="4" class="st2" width="1" height="1"/>
		<rect x="13" y="4" class="st2" width="1" height="1"/>
		<rect x="14" y="4" class="st2" width="1" height="1"/>
		<rect x="15" y="4" class="st2" width="1" height="1"/>
		<rect x="16" y="4" class="st2" width="1" height="1"/>
		<rect x="17" y="4" class="st2" width="1" height="1"/>
		<rect x="18" y="4" class="st2" width="1" height="1"/>
		<rect x="19" y="4" class="st2" width="1" height="1"/>
		<rect x="20" y="4" class="st2" width="1" height="1"/>
		<rect x="21" y="4" class="st2" width="1" height="1"/>
		<rect x="22" y="4" class="st2" width="1" height="1"/>
		<rect x="23" y="4" class="st2" width="1" height="1"/>
		<rect y="5" class="st2" width="1" height="1"/>
		<rect x="1" y="5" class="st2" width="1" height="1"/>
		<rect x="2" y="5" class="st2" width="1" height="1"/>
		<rect x="3" y="5" class="st2" width="1" height="1"/>
		<rect x="4" y="5" class="st2" width="1" height="1"/>
		<rect x="5" y="5" class="st2" width="1" height="1"/>
		<rect x="6" y="5" class="st2" width="1" height="1"/>
		<rect x="7" y="5" class="st2" width="1" height="1"/>
		<rect x="8" y="5" class="st2" width="1" height="1"/>
		<rect x="9" y="5" class="st2" width="1" height="1"/>
		<rect x="10" y="5" class="st2" width="1" height="1"/>
		<rect x="11" y="5" class="st2" width="1" height="1"/>
		<rect x="12" y="5" class="st2" width="1" height="1"/>
		<rect x="13" y="5" class="st2" width="1" height="1"/>
		<rect x="14" y="5" class="st2" width="1" height="1"/>
		<rect x="15" y="5" class="st2" width="1" height="1"/>
		<rect x="16" y="5" class="st2" width="1" height="1"/>
		<rect x="17" y="5" class="st2" width="1" height="1"/>
		<rect x="18" y="5" class="st2" width="1" height="1"/>
		<rect x="19" y="5" class="st2" width="1" height="1"/>
		<rect x="20" y="5" class="st2" width="1" height="1"/>
		<rect x="21" y="5" class="st2" width="1" height="1"/>
		<rect x="22" y="5" class="st2" width="1" height="1"/>
		<rect x="23" y="5" class="st2" width="1" height="1"/>
		<rect y="6" class="st2" width="1" height="1"/>
		<rect x="1" y="6" class="st2" width="1" height="1"/>
		<rect x="2" y="6" class="st2" width="1" height="1"/>
		<rect x="3" y="6" class="st2" width="1" height="1"/>
		<rect x="4" y="6" class="st2" width="1" height="1"/>
		<rect x="5" y="6" class="st2" width="1" height="1"/>
		<rect x="6" y="6" class="st2" width="1" height="1"/>
		<rect x="7" y="6" class="st2" width="1" height="1"/>
		<rect x="8" y="6" class="st2" width="1" height="1"/>
		<rect x="9" y="6" class="st2" width="1" height="1"/>
		<rect x="10" y="6" class="st2" width="1" height="1"/>
		<rect x="11" y="6" class="st2" width="1" height="1"/>
		<rect x="12" y="6" class="st2" width="1" height="1"/>
		<rect x="13" y="6" class="st2" width="1" height="1"/>
		<rect x="14" y="6" class="st2" width="1" height="1"/>
		<rect x="15" y="6" class="st2" width="1" height="1"/>
		<rect x="16" y="6" class="st2" width="1" height="1"/>
		<rect x="17" y="6" class="st2" width="1" height="1"/>
		<rect x="18" y="6" class="st2" width="1" height="1"/>
		<rect x="19" y="6" class="st2" width="1" height="1"/>
		<rect x="20" y="6" class="st2" width="1" height="1"/>
		<rect x="21" y="6" class="st2" width="1" height="1"/>
		<rect x="22" y="6" class="st2" width="1" height="1"/>
		<rect x="23" y="6" class="st2" width="1" height="1"/>
		<rect y="7" class="st2" width="1" height="1"/>
		<rect x="1" y="7" class="st2" width="1" height="1"/>
		<rect x="2" y="7" class="st2" width="1" height="1"/>
		<rect x="3" y="7" class="st2" width="1" height="1"/>
		<rect x="4" y="7" class="st2" width="1" height="1"/>
		<rect x="5" y="7" class="st2" width="1" height="1"/>
		<rect x="6" y="7" class="st2" width="1" height="1"/>
		<rect x="7" y="7" class="st2" width="1" height="1"/>
		<rect x="8" y="7" class="st2" width="1" height="1"/>
		<rect x="9" y="7" class="st2" width="1" height="1"/>
		<rect x="10" y="7" class="st2" width="1" height="1"/>
		<rect x="11" y="7" class="st2" width="1" height="1"/>
		<rect x="12" y="7" class="st2" width="1" height="1"/>
		<rect x="13" y="7" class="st2" width="1" height="1"/>
		<rect x="14" y="7" class="st2" width="1" height="1"/>
		<rect x="15" y="7" class="st2" width="1" height="1"/>
		<rect x="16" y="7" class="st2" width="1" height="1"/>
		<rect x="17" y="7" class="st2" width="1" height="1"/>
		<rect x="18" y="7" class="st2" width="1" height="1"/>
		<rect x="19" y="7" class="st2" width="1" height="1"/>
		<rect x="20" y="7" class="st2" width="1" height="1"/>
		<rect x="21" y="7" class="st2" width="1" height="1"/>
		<rect x="22" y="7" class="st2" width="1" height="1"/>
		<rect x="23" y="7" class="st2" width="1" height="1"/>
		<rect y="8" class="st2" width="1" height="1"/>
		<rect x="1" y="8" class="st2" width="1" height="1"/>
		<rect x="2" y="8" class="st2" width="1" height="1"/>
		<rect x="3" y="8" class="st2" width="1" height="1"/>
		<rect x="4" y="8" class="st2" width="1" height="1"/>
		<rect x="5" y="8" class="st2" width="1" height="1"/>
		<rect x="6" y="8" class="st2" width="1" height="1"/>
		<rect x="7" y="8" class="st2" width="1" height="1"/>
		<rect x="8" y="8" class="st2" width="1" height="1"/>
		<rect x="9" y="8" class="st2" width="1" height="1"/>
		<rect x="10" y="8" class="st2" width="1" height="1"/>
		<rect x="11" y="8" class="st2" width="1" height="1"/>
		<rect x="12" y="8" class="st2" width="1" height="1"/>
		<rect x="13" y="8" class="st2" width="1" height="1"/>
		<rect x="14" y="8" class="st2" width="1" height="1"/>
		<rect x="15" y="8" class="st2" width="1" height="1"/>
		<rect x="16" y="8" class="st2" width="1" height="1"/>
		<rect x="17" y="8" class="st2" width="1" height="1"/>
		<rect x="18" y="8" class="st2" width="1" height="1"/>
		<rect x="19" y="8" class="st2" width="1" height="1"/>
		<rect x="20" y="8" class="st2" width="1" height="1"/>
		<rect x="21" y="8" class="st2" width="1" height="1"/>
		<rect x="22" y="8" class="st2" width="1" height="1"/>
		<rect x="23" y="8" class="st2" width="1" height="1"/>
		<rect y="9" class="st2" width="1" height="1"/>
		<rect x="1" y="9" class="st2" width="1" height="1"/>
		<rect x="2" y="9" class="st2" width="1" height="1"/>
		<rect x="3" y="9" class="st2" width="1" height="1"/>
		<rect x="4" y="9" class="st2" width="1" height="1"/>
		<rect x="5" y="9" class="st2" width="1" height="1"/>
		<rect x="6" y="9" class="st2" width="1" height="1"/>
		<rect x="7" y="9" class="st2" width="1" height="1"/>
		<rect x="8" y="9" class="st2" width="1" height="1"/>
		<rect x="9" y="9" class="st2" width="1" height="1"/>
		<rect x="10" y="9" class="st2" width="1" height="1"/>
		<rect x="11" y="9" class="st2" width="1" height="1"/>
		<rect x="12" y="9" class="st2" width="1" height="1"/>
		<rect x="13" y="9" class="st2" width="1" height="1"/>
		<rect x="14" y="9" class="st2" width="1" height="1"/>
		<rect x="15" y="9" class="st2" width="1" height="1"/>
		<rect x="16" y="9" class="st2" width="1" height="1"/>
		<rect x="17" y="9" class="st2" width="1" height="1"/>
		<rect x="18" y="9" class="st2" width="1" height="1"/>
		<rect x="19" y="9" class="st2" width="1" height="1"/>
		<rect x="20" y="9" class="st2" width="1" height="1"/>
		<rect x="21" y="9" class="st2" width="1" height="1"/>
		<rect x="22" y="9" class="st2" width="1" height="1"/>
		<rect x="23" y="9" class="st2" width="1" height="1"/>
		<rect y="10" class="st2" width="1" height="1"/>
		<rect x="1" y="10" class="st2" width="1" height="1"/>
		<rect x="2" y="10" class="st2" width="1" height="1"/>
		<rect x="3" y="10" class="st2" width="1" height="1"/>
		<rect x="4" y="10" class="st2" width="1" height="1"/>
		<rect x="5" y="10" class="st2" width="1" height="1"/>
		<rect x="6" y="10" class="st2" width="1" height="1"/>
		<rect x="7" y="10" class="st2" width="1" height="1"/>
		<rect x="8" y="10" class="st2" width="1" height="1"/>
		<rect x="9" y="10" class="st2" width="1" height="1"/>
		<rect x="10" y="10" class="st2" width="1" height="1"/>
		<rect x="11" y="10" class="st2" width="1" height="1"/>
		<rect x="12" y="10" class="st2" width="1" height="1"/>
		<rect x="13" y="10" class="st2" width="1" height="1"/>
		<rect x="14" y="10" class="st2" width="1" height="1"/>
		<rect x="15" y="10" class="st2" width="1" height="1"/>
		<rect x="16" y="10" class="st2" width="1" height="1"/>
		<rect x="17" y="10" class="st2" width="1" height="1"/>
		<rect x="18" y="10" class="st2" width="1" height="1"/>
		<rect x="19" y="10" class="st2" width="1" height="1"/>
		<rect x="20" y="10" class="st2" width="1" height="1"/>
		<rect x="21" y="10" class="st2" width="1" height="1"/>
		<rect x="22" y="10" class="st2" width="1" height="1"/>
		<rect x="23" y="10" class="st2" width="1" height="1"/>
		<rect y="11" class="st2" width="1" height="1"/>
		<rect x="1" y="11" class="st2" width="1" height="1"/>
		<rect x="2" y="11" class="st2" width="1" height="1"/>
		<rect x="3" y="11" class="st2" width="1" height="1"/>
		<rect x="4" y="11" class="st2" width="1" height="1"/>
		<rect x="5" y="11" class="st2" width="1" height="1"/>
		<rect x="6" y="11" class="st2" width="1" height="1"/>
		<rect x="7" y="11" class="st2" width="1" height="1"/>
		<rect x="8" y="11" class="st2" width="1" height="1"/>
		<rect x="9" y="11" class="st2" width="1" height="1"/>
		<rect x="10" y="11" class="st2" width="1" height="1"/>
		<rect x="11" y="11" class="st2" width="1" height="1"/>
		<rect x="12" y="11" class="st2" width="1" height="1"/>
		<rect x="13" y="11" class="st2" width="1" height="1"/>
		<rect x="14" y="11" class="st2" width="1" height="1"/>
		<rect x="15" y="11" class="st2" width="1" height="1"/>
		<rect x="16" y="11" class="st2" width="1" height="1"/>
		<rect x="17" y="11" class="st2" width="1" height="1"/>
		<rect x="18" y="11" class="st2" width="1" height="1"/>
		<rect x="19" y="11" class="st2" width="1" height="1"/>
		<rect x="20" y="11" class="st2" width="1" height="1"/>
		<rect x="21" y="11" class="st2" width="1" height="1"/>
		<rect x="22" y="11" class="st2" width="1" height="1"/>
		<rect x="23" y="11" class="st2" width="1" height="1"/>
		<rect y="12" class="st2" width="1" height="1"/>
		<rect x="1" y="12" class="st2" width="1" height="1"/>
		<rect x="2" y="12" class="st2" width="1" height="1"/>
		<rect x="3" y="12" class="st2" width="1" height="1"/>
		<rect x="4" y="12" class="st2" width="1" height="1"/>
		<rect x="5" y="12" class="st2" width="1" height="1"/>
		<rect x="6" y="12" class="st2" width="1" height="1"/>
		<rect x="7" y="12" class="st2" width="1" height="1"/>
		<rect x="8" y="12" class="st2" width="1" height="1"/>
		<rect x="9" y="12" class="st2" width="1" height="1"/>
		<rect x="10" y="12" class="st2" width="1" height="1"/>
		<rect x="11" y="12" class="st2" width="1" height="1"/>
		<rect x="12" y="12" class="st2" width="1" height="1"/>
		<rect x="13" y="12" class="st2" width="1" height="1"/>
		<rect x="14" y="12" class="st2" width="1" height="1"/>
		<rect x="15" y="12" class="st2" width="1" height="1"/>
		<rect x="16" y="12" class="st2" width="1" height="1"/>
		<rect x="17" y="12" class="st2" width="1" height="1"/>
		<rect x="18" y="12" class="st2" width="1" height="1"/>
		<rect x="19" y="12" class="st2" width="1" height="1"/>
		<rect x="20" y="12" class="st2" width="1" height="1"/>
		<rect x="21" y="12" class="st2" width="1" height="1"/>
		<rect x="22" y="12" class="st2" width="1" height="1"/>
		<rect x="23" y="12" class="st2" width="1" height="1"/>
		<rect y="13" class="st2" width="1" height="1"/>
		<rect x="1" y="13" class="st2" width="1" height="1"/>
		<rect x="2" y="13" class="st2" width="1" height="1"/>
		<rect x="3" y="13" class="st2" width="1" height="1"/>
		<rect x="4" y="13" class="st2" width="1" height="1"/>
		<rect x="5" y="13" class="st2" width="1" height="1"/>
		<rect x="6" y="13" class="st2" width="1" height="1"/>
		<rect x="7" y="13" class="st2" width="1" height="1"/>
		<rect x="8" y="13" class="st2" width="1" height="1"/>
		<rect x="9" y="13" class="st2" width="1" height="1"/>
		<rect x="10" y="13" class="st2" width="1" height="1"/>
		<rect x="11" y="13" class="st2" width="1" height="1"/>
		<rect x="12" y="13" class="st2" width="1" height="1"/>
		<rect x="13" y="13" class="st2" width="1" height="1"/>
		<rect x="14" y="13" class="st2" width="1" height="1"/>
		<rect x="15" y="13" class="st2" width="1" height="1"/>
		<rect x="16" y="13" class="st2" width="1" height="1"/>
		<rect x="17" y="13" class="st2" width="1" height="1"/>
		<rect x="18" y="13" class="st2" width="1" height="1"/>
		<rect x="19" y="13" class="st2" width="1" height="1"/>
		<rect x="20" y="13" class="st2" width="1" height="1"/>
		<rect x="21" y="13" class="st2" width="1" height="1"/>
		<rect x="22" y="13" class="st2" width="1" height="1"/>
		<rect x="23" y="13" class="st2" width="1" height="1"/>
		<rect y="14" class="st2" width="1" height="1"/>
		<rect x="1" y="14" class="st2" width="1" height="1"/>
		<rect x="2" y="14" class="st2" width="1" height="1"/>
		<rect x="3" y="14" class="st2" width="1" height="1"/>
		<rect x="4" y="14" class="st2" width="1" height="1"/>
		<rect x="5" y="14" class="st2" width="1" height="1"/>
		<rect x="6" y="14" class="st2" width="1" height="1"/>
		<rect x="7" y="14" class="st2" width="1" height="1"/>
		<rect x="8" y="14" class="st2" width="1" height="1"/>
		<rect x="9" y="14" class="st2" width="1" height="1"/>
		<rect x="10" y="14" class="st2" width="1" height="1"/>
		<rect x="11" y="14" class="st2" width="1" height="1"/>
		<rect x="12" y="14" class="st2" width="1" height="1"/>
		<rect x="13" y="14" class="st2" width="1" height="1"/>
		<rect x="14" y="14" class="st2" width="1" height="1"/>
		<rect x="15" y="14" class="st2" width="1" height="1"/>
		<rect x="16" y="14" class="st2" width="1" height="1"/>
		<rect x="17" y="14" class="st2" width="1" height="1"/>
		<rect x="18" y="14" class="st2" width="1" height="1"/>
		<rect x="19" y="14" class="st2" width="1" height="1"/>
		<rect x="20" y="14" class="st2" width="1" height="1"/>
		<rect x="21" y="14" class="st2" width="1" height="1"/>
		<rect x="22" y="14" class="st2" width="1" height="1"/>
		<rect x="23" y="14" class="st2" width="1" height="1"/>
		<rect y="15" class="st2" width="1" height="1"/>
		<rect x="1" y="15" class="st2" width="1" height="1"/>
		<rect x="2" y="15" class="st2" width="1" height="1"/>
		<rect x="3" y="15" class="st2" width="1" height="1"/>
		<rect x="4" y="15" class="st2" width="1" height="1"/>
		<rect x="5" y="15" class="st2" width="1" height="1"/>
		<rect x="6" y="15" class="st2" width="1" height="1"/>
		<rect x="7" y="15" class="st2" width="1" height="1"/>
		<rect x="8" y="15" class="st2" width="1" height="1"/>
		<rect x="9" y="15" class="st2" width="1" height="1"/>
		<rect x="10" y="15" class="st2" width="1" height="1"/>
		<rect x="11" y="15" class="st2" width="1" height="1"/>
		<rect x="12" y="15" class="st2" width="1" height="1"/>
		<rect x="13" y="15" class="st2" width="1" height="1"/>
		<rect x="14" y="15" class="st2" width="1" height="1"/>
		<rect x="15" y="15" class="st2" width="1" height="1"/>
		<rect x="16" y="15" class="st2" width="1" height="1"/>
		<rect x="17" y="15" class="st2" width="1" height="1"/>
		<rect x="18" y="15" class="st2" width="1" height="1"/>
		<rect x="19" y="15" class="st2" width="1" height="1"/>
		<rect x="20" y="15" class="st2" width="1" height="1"/>
		<rect x="21" y="15" class="st2" width="1" height="1"/>
		<rect x="22" y="15" class="st2" width="1" height="1"/>
		<rect x="23" y="15" class="st2" width="1" height="1"/>
		<rect y="16" class="st2" width="1" height="1"/>
		<rect x="1" y="16" class="st2" width="1" height="1"/>
		<rect x="2" y="16" class="st2" width="1" height="1"/>
		<rect x="3" y="16" class="st2" width="1" height="1"/>
		<rect x="4" y="16" class="st2" width="1" height="1"/>
		<rect x="5" y="16" class="st2" width="1" height="1"/>
		<rect x="6" y="16" class="st2" width="1" height="1"/>
		<rect x="7" y="16" class="st2" width="1" height="1"/>
		<rect x="8" y="16" class="st2" width="1" height="1"/>
		<rect x="9" y="16" class="st2" width="1" height="1"/>
		<rect x="10" y="16" class="st2" width="1" height="1"/>
		<rect x="11" y="16" class="st2" width="1" height="1"/>
		<rect x="12" y="16" class="st2" width="1" height="1"/>
		<rect x="13" y="16" class="st2" width="1" height="1"/>
		<rect x="14" y="16" class="st2" width="1" height="1"/>
		<rect x="15" y="16" class="st2" width="1" height="1"/>
		<rect x="16" y="16" class="st2" width="1" height="1"/>
		<rect x="17" y="16" class="st2" width="1" height="1"/>
		<rect x="18" y="16" class="st2" width="1" height="1"/>
		<rect x="19" y="16" class="st2" width="1" height="1"/>
		<rect x="20" y="16" class="st2" width="1" height="1"/>
		<rect x="21" y="16" class="st2" width="1" height="1"/>
		<rect x="22" y="16" class="st2" width="1" height="1"/>
		<rect x="23" y="16" class="st2" width="1" height="1"/>
		<rect y="17" class="st2" width="1" height="1"/>
		<rect x="1" y="17" class="st2" width="1" height="1"/>
		<rect x="2" y="17" class="st2" width="1" height="1"/>
		<rect x="3" y="17" class="st2" width="1" height="1"/>
		<rect x="4" y="17" class="st2" width="1" height="1"/>
		<rect x="5" y="17" class="st2" width="1" height="1"/>
		<rect x="6" y="17" class="st2" width="1" height="1"/>
		<rect x="7" y="17" class="st2" width="1" height="1"/>
		<rect x="8" y="17" class="st2" width="1" height="1"/>
		<rect x="9" y="17" class="st2" width="1" height="1"/>
		<rect x="10" y="17" class="st2" width="1" height="1"/>
		<rect x="11" y="17" class="st2" width="1" height="1"/>
		<rect x="12" y="17" class="st2" width="1" height="1"/>
		<rect x="13" y="17" class="st2" width="1" height="1"/>
		<rect x="14" y="17" class="st2" width="1" height="1"/>
		<rect x="15" y="17" class="st2" width="1" height="1"/>
		<rect x="16" y="17" class="st2" width="1" height="1"/>
		<rect x="17" y="17" class="st2" width="1" height="1"/>
		<rect x="18" y="17" class="st2" width="1" height="1"/>
		<rect x="19" y="17" class="st2" width="1" height="1"/>
		<rect x="20" y="17" class="st2" width="1" height="1"/>
		<rect x="21" y="17" class="st2" width="1" height="1"/>
		<rect x="22" y="17" class="st2" width="1" height="1"/>
		<rect x="23" y="17" class="st2" width="1" height="1"/>
		<rect y="18" class="st2" width="1" height="1"/>
		<rect x="1" y="18" class="st2" width="1" height="1"/>
		<rect x="2" y="18" class="st2" width="1" height="1"/>
		<rect x="3" y="18" class="st2" width="1" height="1"/>
		<rect x="4" y="18" class="st2" width="1" height="1"/>
		<rect x="5" y="18" class="st2" width="1" height="1"/>
		<rect x="6" y="18" class="st2" width="1" height="1"/>
		<rect x="7" y="18" class="st2" width="1" height="1"/>
		<rect x="8" y="18" class="st2" width="1" height="1"/>
		<rect x="9" y="18" class="st2" width="1" height="1"/>
		<rect x="10" y="18" class="st2" width="1" height="1"/>
		<rect x="11" y="18" class="st2" width="1" height="1"/>
		<rect x="12" y="18" class="st2" width="1" height="1"/>
		<rect x="13" y="18" class="st2" width="1" height="1"/>
		<rect x="14" y="18" class="st2" width="1" height="1"/>
		<rect x="15" y="18" class="st2" width="1" height="1"/>
		<rect x="16" y="18" class="st2" width="1" height="1"/>
		<rect x="17" y="18" class="st2" width="1" height="1"/>
		<rect x="18" y="18" class="st2" width="1" height="1"/>
		<rect x="19" y="18" class="st2" width="1" height="1"/>
		<rect x="20" y="18" class="st2" width="1" height="1"/>
		<rect x="21" y="18" class="st2" width="1" height="1"/>
		<rect x="22" y="18" class="st2" width="1" height="1"/>
		<rect x="23" y="18" class="st2" width="1" height="1"/>
		<rect y="19" class="st2" width="1" height="1"/>
		<rect x="1" y="19" class="st2" width="1" height="1"/>
		<rect x="2" y="19" class="st2" width="1" height="1"/>
		<rect x="3" y="19" class="st2" width="1" height="1"/>
		<rect x="4" y="19" class="st2" width="1" height="1"/>
		<rect x="5" y="19" class="st2" width="1" height="1"/>
		<rect x="6" y="19" class="st2" width="1" height="1"/>
		<rect x="7" y="19" class="st2" width="1" height="1"/>
		<rect x="8" y="19" class="st2" width="1" height="1"/>
		<rect x="9" y="19" class="st2" width="1" height="1"/>
		<rect x="10" y="19" class="st2" width="1" height="1"/>
		<rect x="11" y="19" class="st2" width="1" height="1"/>
		<rect x="12" y="19" class="st2" width="1" height="1"/>
		<rect x="13" y="19" class="st2" width="1" height="1"/>
		<rect x="14" y="19" class="st2" width="1" height="1"/>
		<rect x="15" y="19" class="st2" width="1" height="1"/>
		<rect x="16" y="19" class="st2" width="1" height="1"/>
		<rect x="17" y="19" class="st2" width="1" height="1"/>
		<rect x="18" y="19" class="st2" width="1" height="1"/>
		<rect x="19" y="19" class="st2" width="1" height="1"/>
		<rect x="20" y="19" class="st2" width="1" height="1"/>
		<rect x="21" y="19" class="st2" width="1" height="1"/>
		<rect x="22" y="19" class="st2" width="1" height="1"/>
		<rect x="23" y="19" class="st2" width="1" height="1"/>
		<rect y="20" class="st2" width="1" height="1"/>
		<rect x="1" y="20" class="st2" width="1" height="1"/>
		<rect x="2" y="20" class="st2" width="1" height="1"/>
		<rect x="3" y="20" class="st2" width="1" height="1"/>
		<rect x="4" y="20" class="st2" width="1" height="1"/>
		<rect x="5" y="20" class="st2" width="1" height="1"/>
		<rect x="6" y="20" class="st2" width="1" height="1"/>
		<rect x="7" y="20" class="st2" width="1" height="1"/>
		<rect x="8" y="20" class="st2" width="1" height="1"/>
		<rect x="9" y="20" class="st2" width="1" height="1"/>
		<rect x="10" y="20" class="st2" width="1" height="1"/>
		<rect x="11" y="20" class="st2" width="1" height="1"/>
		<rect x="12" y="20" class="st2" width="1" height="1"/>
		<rect x="13" y="20" class="st2" width="1" height="1"/>
		<rect x="14" y="20" class="st2" width="1" height="1"/>
		<rect x="15" y="20" class="st2" width="1" height="1"/>
		<rect x="16" y="20" class="st2" width="1" height="1"/>
		<rect x="17" y="20" class="st2" width="1" height="1"/>
		<rect x="18" y="20" class="st2" width="1" height="1"/>
		<rect x="19" y="20" class="st2" width="1" height="1"/>
		<rect x="20" y="20" class="st2" width="1" height="1"/>
		<rect x="21" y="20" class="st2" width="1" height="1"/>
		<rect x="22" y="20" class="st2" width="1" height="1"/>
		<rect x="23" y="20" class="st2" width="1" height="1"/>
		<rect y="21" class="st2" width="1" height="1"/>
		<rect x="1" y="21" class="st2" width="1" height="1"/>
		<rect x="2" y="21" class="st2" width="1" height="1"/>
		<rect x="3" y="21" class="st2" width="1" height="1"/>
		<rect x="4" y="21" class="st2" width="1" height="1"/>
		<rect x="5" y="21" class="st2" width="1" height="1"/>
		<rect x="6" y="21" class="st2" width="1" height="1"/>
		<rect x="7" y="21" class="st2" width="1" height="1"/>
		<rect x="8" y="21" class="st2" width="1" height="1"/>
		<rect x="9" y="21" class="st2" width="1" height="1"/>
		<rect x="10" y="21" class="st2" width="1" height="1"/>
		<rect x="11" y="21" class="st2" width="1" height="1"/>
		<rect x="12" y="21" class="st2" width="1" height="1"/>
		<rect x="13" y="21" class="st2" width="1" height="1"/>
		<rect x="14" y="21" class="st2" width="1" height="1"/>
		<rect x="15" y="21" class="st2" width="1" height="1"/>
		<rect x="16" y="21" class="st2" width="1" height="1"/>
		<rect x="17" y="21" class="st2" width="1" height="1"/>
		<rect x="18" y="21" class="st2" width="1" height="1"/>
		<rect x="19" y="21" class="st2" width="1" height="1"/>
		<rect x="20" y="21" class="st2" width="1" height="1"/>
		<rect x="21" y="21" class="st2" width="1" height="1"/>
		<rect x="22" y="21" class="st2" width="1" height="1"/>
		<rect x="23" y="21" class="st2" width="1" height="1"/>
		<rect y="22" class="st2" width="1" height="1"/>
		<rect x="1" y="22" class="st2" width="1" height="1"/>
		<rect x="2" y="22" class="st2" width="1" height="1"/>
		<rect x="3" y="22" class="st2" width="1" height="1"/>
		<rect x="4" y="22" class="st2" width="1" height="1"/>
		<rect x="5" y="22" class="st2" width="1" height="1"/>
		<rect x="6" y="22" class="st2" width="1" height="1"/>
		<rect x="7" y="22" class="st2" width="1" height="1"/>
		<rect x="8" y="22" class="st2" width="1" height="1"/>
		<rect x="9" y="22" class="st2" width="1" height="1"/>
		<rect x="10" y="22" class="st2" width="1" height="1"/>
		<rect x="11" y="22" class="st2" width="1" height="1"/>
		<rect x="12" y="22" class="st2" width="1" height="1"/>
		<rect x="13" y="22" class="st2" width="1" height="1"/>
		<rect x="14" y="22" class="st2" width="1" height="1"/>
		<rect x="15" y="22" class="st2" width="1" height="1"/>
		<rect x="16" y="22" class="st2" width="1" height="1"/>
		<rect x="17" y="22" class="st2" width="1" height="1"/>
		<rect x="18" y="22" class="st2" width="1" height="1"/>
		<rect x="19" y="22" class="st2" width="1" height="1"/>
		<rect x="20" y="22" class="st2" width="1" height="1"/>
		<rect x="21" y="22" class="st2" width="1" height="1"/>
		<rect x="22" y="22" class="st2" width="1" height="1"/>
		<rect x="23" y="22" class="st2" width="1" height="1"/>
		<rect y="23" class="st2" width="1" height="1"/>
		<rect x="1" y="23" class="st2" width="1" height="1"/>
		<rect x="2" y="23" class="st2" width="1" height="1"/>
		<rect x="3" y="23" class="st2" width="1" height="1"/>
		<rect x="4" y="23" class="st2" width="1" height="1"/>
		<rect x="5" y="23" class="st2" width="1" height="1"/>
		<rect x="6" y="23" class="st2" width="1" height="1"/>
		<rect x="7" y="23" class="st2" width="1" height="1"/>
		<rect x="8" y="23" class="st2" width="1" height="1"/>
		<rect x="9" y="23" class="st2" width="1" height="1"/>
		<rect x="10" y="23" class="st2" width="1" height="1"/>
		<rect x="11" y="23" class="st2" width="1" height="1"/>
		<rect x="12" y="23" class="st2" width="1" height="1"/>
		<rect x="13" y="23" class="st2" width="1" height="1"/>
		<rect x="14" y="23" class="st2" width="1" height="1"/>
		<rect x="15" y="23" class="st2" width="1" height="1"/>
		<rect x="16" y="23" class="st2" width="1" height="1"/>
		<rect x="17" y="23" class="st2" width="1" height="1"/>
		<rect x="18" y="23" class="st2" width="1" height="1"/>
		<rect x="19" y="23" class="st2" width="1" height="1"/>
		<rect x="20" y="23" class="st2" width="1" height="1"/>
		<rect x="21" y="23" class="st2" width="1" height="1"/>
		<rect x="22" y="23" class="st2" width="1" height="1"/>
		<rect x="23" y="23" class="st2" width="1" height="1"/>
	</g>
</g>
<g id="ICON">
	<g>
		<g>
			<path d="M19.06,4.93C17.17,3.04,14.66,2,11.99,2S6.81,3.04,4.93,4.93C3.04,6.81,2,9.32,2,11.99s1.04,5.18,2.93,7.07
				c1.89,1.89,4.4,2.93,7.07,2.93c1.83,0,3.62-0.5,5.17-1.44c0.37-0.22,0.49-0.7,0.26-1.07c-0.22-0.37-0.7-0.49-1.07-0.26
				c-1.09,0.66-2.31,1.06-3.58,1.18v-7.61h2.81c0.08,1.08,0.34,2.12,0.76,3.12c0.13,0.3,0.42,0.48,0.72,0.48
				c0.1,0,0.2-0.02,0.3-0.06c0.4-0.17,0.58-0.63,0.41-1.02c-0.34-0.8-0.55-1.64-0.63-2.51h3.24c-0.13,1.39-0.6,2.72-1.39,3.9
				c-0.24,0.36-0.14,0.84,0.22,1.08c0.36,0.24,0.84,0.14,1.08-0.22c1.11-1.66,1.69-3.58,1.69-5.55C21.99,9.32,20.95,6.81,19.06,4.93
				z M3.6,12.77h3.24c-0.14,1.53-0.7,3-1.62,4.24C4.32,15.8,3.74,14.35,3.6,12.77z M11.21,20.39c-1.89-0.17-3.61-0.98-4.93-2.2
				c1.23-1.55,1.97-3.44,2.12-5.42h2.81V20.39z M11.21,11.21H8.41c-0.08-1.06-0.33-2.09-0.74-3.07C7.5,7.74,7.04,7.55,6.65,7.72
				c-0.4,0.17-0.59,0.62-0.42,1.02c0.33,0.79,0.54,1.62,0.61,2.47H3.6c0.37-4.03,3.59-7.24,7.61-7.61V11.21z M15.58,11.21h-2.81V3.6
				c1.89,0.17,3.61,0.98,4.93,2.2C16.47,7.35,15.73,9.24,15.58,11.21z M17.15,11.21c0.14-1.53,0.7-3,1.62-4.24
				c0.9,1.21,1.48,2.66,1.62,4.24H17.15z"/>
		</g>
	</g>
</g>
</svg>
